<?xml version="1.0" encoding="iso-8859-1"?>
<!-- Generator: Adobe Illustrator 19.0.0, SVG Export Plug-In . SVG Version: 6.00 Build 0)  -->
<svg version="1.1" id="Capa_1" xmlns="http://www.w3.org/2000/svg" xmlns:xlink="http://www.w3.org/1999/xlink" x="0px" y="0px"
	 viewBox="0 0 512 512" style="enable-background:new 0 0 512 512;" xml:space="preserve">
<g>
	<g>
		<path d="M220.821,0c-54.654,0-99.119,44.464-99.119,99.119c0,54.653,44.465,99.118,99.119,99.118
			c54.654,0,99.118-44.464,99.118-99.118C319.939,44.464,275.475,0,220.821,0z"/>
	</g>
</g>
<g>
	<g>
		<path d="M279.316,219.101h-116.99c-41.355,0-75,33.645-75,75v146.99c0,24.813,20.187,45,45,45h86.935
			c-14.384-20.82-22.823-46.046-22.823-73.21c0-71.196,57.922-129.118,129.118-129.118c9.758,0,19.264,1.095,28.408,3.156
			C350.336,248.922,318.247,219.101,279.316,219.101z"/>
	</g>
</g>
<g>
	<g>
		<path d="M325.556,313.763c-54.654,0-99.118,44.464-99.118,99.118S270.902,512,325.556,512s99.118-44.464,99.118-99.119
			C424.674,358.228,380.21,313.763,325.556,313.763z M361.2,427.881h-20.645v20.645c0,8.284-6.716,15-15,15s-15-6.716-15-15v-20.645
			H289.91c-8.284,0-15-6.716-15-15s6.716-15,15-15h20.645v-20.645c0-8.284,6.716-15,15-15s15,6.716,15,15v20.645H361.2
			c8.284,0,15,6.716,15,15S369.484,427.881,361.2,427.881z"/>
	</g>
</g>
<g>
</g>
<g>
</g>
<g>
</g>
<g>
</g>
<g>
</g>
<g>
</g>
<g>
</g>
<g>
</g>
<g>
</g>
<g>
</g>
<g>
</g>
<g>
</g>
<g>
</g>
<g>
</g>
<g>
</g>
</svg>
