<svg id="Layer_1" enable-background="new 0 0 512 512" height="512" viewBox="0 0 512 512" width="512" xmlns="http://www.w3.org/2000/svg"><g><path d="m448.055 195c0-1.657-1.343-3-3-3h-133.11c-21.98 0-39.92 17.88-39.99 39.87l-.79 240c-.083 22.209 17.881 40.13 40 40.13h133.89c1.657 0 3-1.343 3-3z"/><path d="m471.945 192h-4.89c-1.657 0-3 1.343-3 3v314c0 1.657 1.343 3 3 3h4.11c21.98 0 39.92-17.88 39.99-39.87l.79-240c.083-22.21-17.881-40.13-40-40.13z"/><path d="m200.055 0h-133c-1.657 0-3 1.343-3 3v298c0 1.657 1.343 3 3 3h133c22.091 0 40-17.909 40-40v-224c0-22.091-17.909-40-40-40z"/><path d="m45.055 0h-5c-22.091 0-40 17.909-40 40v224c0 22.091 17.909 40 40 40h5c1.657 0 3-1.343 3-3v-298c0-1.657-1.343-3-3-3z"/><path d="m45.055 336h-5c-22.091 0-40 17.909-40 40v96c0 22.091 17.909 40 40 40h5c1.657 0 3-1.343 3-3v-170c0-1.657-1.343-3-3-3z"/><path d="m200.055 336h-133c-1.657 0-3 1.343-3 3v170c0 1.657 1.343 3 3 3h133c22.091 0 40-17.909 40-40v-96c0-22.091-17.909-40-40-40z"/><path d="m448.055 3c0-1.657-1.343-3-3-3h-133.78c-22.209 0-40.145 18.055-40 40.28l.56 80c.15 21.9 18.1 39.72 40 39.72h133.22c1.657 0 3-1.343 3-3z"/><path d="m511.275 39.72c-.15-21.9-18.1-39.72-40-39.72h-4.22c-1.657 0-3 1.343-3 3v154c0 1.657 1.343 3 3 3h4.78c22.167 0 40.145-18.01 40-40.28z"/></g></svg>