<?xml version="1.0" encoding="iso-8859-1"?>
<!-- Generator: Adobe Illustrator 16.0.0, SVG Export Plug-In . SVG Version: 6.00 Build 0)  -->
<!DOCTYPE svg PUBLIC "-//W3C//DTD SVG 1.1//EN" "http://www.w3.org/Graphics/SVG/1.1/DTD/svg11.dtd">
<svg version="1.1" id="Capa_1" xmlns="http://www.w3.org/2000/svg" xmlns:xlink="http://www.w3.org/1999/xlink" x="0px" y="0px"
	 width="158.798px" height="158.798px" viewBox="0 0 158.798 158.798" style="enable-background:new 0 0 158.798 158.798;"
	 xml:space="preserve">
<g>
	<g>
		<path d="M145.064,10.479H13.732C6.182,10.479,0,16.665,0,24.211v87.461c0,7.558,6.187,13.734,13.732,13.734h60.063v11.705H31.771
			l-5.604,5.604v5.604h106.463v-5.604l-5.604-5.604H85.002v-11.699h60.062c7.561,0,13.733-6.183,13.733-13.735V24.211
			C158.798,16.665,152.625,10.479,145.064,10.479z M153.194,94.868c0,4.487-3.646,8.132-8.13,8.132H13.732
			c-4.487,0-8.129-3.645-8.129-8.132V24.211c0-4.482,3.642-8.129,8.129-8.129h131.333c4.484,0,8.13,3.647,8.13,8.129V94.868z"/>
		<g>
			<path d="M67.542,42.629c0-6.544,5.318-11.869,11.857-11.869c6.541,0,11.869,5.325,11.869,11.869v6.394h6.989v-6.394
				c0-10.399-8.461-18.854-18.858-18.854c-10.388,0-18.856,8.455-18.856,18.854v6.394h7V42.629z"/>
			<path d="M102.118,50.771H56.707c-1.924,0-3.502,1.574-3.502,3.491v34.931c0,1.92,1.578,3.496,3.502,3.496h45.412
				c1.915,0,3.48-1.576,3.48-3.496V54.263C105.599,52.345,104.033,50.771,102.118,50.771z"/>
		</g>
	</g>
</g>
<g>
</g>
<g>
</g>
<g>
</g>
<g>
</g>
<g>
</g>
<g>
</g>
<g>
</g>
<g>
</g>
<g>
</g>
<g>
</g>
<g>
</g>
<g>
</g>
<g>
</g>
<g>
</g>
<g>
</g>
</svg>
