<?xml version="1.0" encoding="UTF-8" standalone="no"?> <!-- Created with Vectornator for iOS (http://vectornator.io/) --><!DOCTYPE svg PUBLIC "-//W3C//DTD SVG 1.1//EN" "http://www.w3.org/Graphics/SVG/1.1/DTD/svg11.dtd">
<svg height="100%" style="fill-rule:evenodd;clip-rule:evenodd;stroke-linecap:round;stroke-linejoin:round;" xmlns:xlink="http://www.w3.org/1999/xlink" xmlns="http://www.w3.org/2000/svg" xml:space="preserve" width="100%" xmlns:vectornator="http://vectornator.io" version="1.1" viewBox="0 0 158.798 158.798">
<metadata>
<vectornator:setting key="Units" value="Points"/>
<vectornator:setting key="GuidesVisible" value="1"/>
<vectornator:setting key="RulersVisible" value="1"/>
<vectornator:setting key="SnapToGuides" value="1"/>
<vectornator:setting key="DynamicGuides" value="1"/>
</metadata>
<defs/>
<g id="Untitled" vectornator:layerName="Untitled">
<g opacity="1">
<path d="M145.064+10.479L13.732+10.479C6.182+10.479+0+16.665+0+24.211L0+111.672C0+119.23+6.187+125.406+13.732+125.406L73.795+125.406L73.795+137.111L31.771+137.111L26.167+142.715L26.167+148.319L132.63+148.319L132.63+142.715L127.026+137.111L85.002+137.111L85.002+125.412L145.064+125.412C152.625+125.412+158.797+119.229+158.797+111.677L158.797+24.211C158.798+16.665+152.625+10.479+145.064+10.479ZM153.194+94.868C153.194+99.355+149.548+103+145.064+103L13.732+103C9.245+103+5.603+99.355+5.603+94.868L5.603+24.211C5.603+19.729+9.245+16.082+13.732+16.082L145.065+16.082C149.549+16.082+153.195+19.729+153.195+24.211L153.195+94.868L153.194+94.868Z" opacity="1" fill="#000000"/>
<g opacity="1">
<path d="M73.469+33.202C73.469+29.93+76.128+27.2675+79.3975+27.2675C82.668+27.2675+85.332+29.93+85.332+33.202L85.332+36.399L88.8265+36.399L88.8265+33.202C88.8265+28.0025+84.596+23.775+79.3975+23.775C74.2035+23.775+69.9695+28.0025+69.9695+33.202L69.9695+36.399L73.4695+36.399L73.4695+33.202L73.469+33.202Z" opacity="1" fill="#000000"/>
<path d="M90.757+37.273L68.0515+37.273C67.0895+37.273+66.3005+38.06+66.3005+39.0185L66.3005+56.484C66.3005+57.444+67.0895+58.232+68.0515+58.232L90.7575+58.232C91.715+58.232+92.4975+57.444+92.4975+56.484L92.4975+39.019C92.4975+38.06+91.7145+37.273+90.757+37.273Z" opacity="1" fill="#000000"/>
</g>
</g>
<g opacity="1" vectornator:blendMode="Difference">
<path d="M46.3702+76.1256L46.6578+80.4025L46.3702+80.4025C45.9867+79.1222+45.4394+78.2007+44.7281+77.6378C44.0168+77.075+43.1633+76.7936+42.1676+76.7936C41.3326+76.7936+40.578+77.0054+39.9039+77.4291C39.2297+77.8528+38.6994+78.5285+38.3128+79.4562C37.9263+80.3839+37.733+81.5374+37.733+82.9166C37.733+84.0547+37.9154+85.0411+38.2803+85.8761C38.6453+86.7111+39.1942+87.3512+39.9271+87.7965C40.66+88.2418+41.4965+88.4645+42.4366+88.4645C43.253+88.4645+43.9735+88.2898+44.5982+87.9403C45.2229+87.5909+45.9094+86.8966+46.6578+85.8576L46.9454+86.0431C46.3145+87.1626+45.5785+87.9821+44.7374+88.5016C43.8962+89.0211+42.8974+89.2809+41.7408+89.2809C39.6565+89.2809+38.0422+88.5078+36.898+86.9616C36.0445+85.8112+35.6178+84.4567+35.6178+82.8981C35.6178+81.6425+35.8992+80.4891+36.462+79.4376C37.0248+78.3862+37.7995+77.5713+38.786+76.9931C39.7725+76.4148+40.8502+76.1256+42.0191+76.1256C42.9283+76.1256+43.8251+76.3483+44.7095+76.7936C44.9693+76.9297+45.1549+76.9977+45.2662+76.9977C45.4332+76.9977+45.5785+76.9389+45.7022+76.8214C45.863+76.6544+45.9775+76.4225+46.0455+76.1256L46.3702+76.1256Z" opacity="1" fill="#000000"/>
<path d="M68.3502+84.7814L63.4796+84.7814L62.6261+86.7667C62.4158+87.2553+62.3107+87.6202+62.3107+87.8615C62.3107+88.0532+62.4019+88.2217+62.5844+88.3671C62.7668+88.5124+63.1611+88.6067+63.7672+88.65L63.7672+88.9933L59.8058+88.9933L59.8058+88.65C60.3315+88.5573+60.6717+88.4367+60.8263+88.2882C61.1417+87.9913+61.4912+87.3883+61.8746+86.4791L66.2999+76.1256L66.6246+76.1256L71.0035+86.5905C71.3561+87.4316+71.6761+87.9774+71.9637+88.2279C72.2513+88.4784+72.6518+88.6191+73.1652+88.65L73.1652+88.9933L68.2018+88.9933L68.2018+88.65C68.7028+88.6253+69.0414+88.5418+69.2177+88.3995C69.3939+88.2573+69.4821+88.0841+69.4821+87.88C69.4821+87.6079+69.3584+87.178+69.111+86.5905L68.3502+84.7814ZM68.0905+84.0949L65.9567+79.0109L63.7672+84.0949L68.0905+84.0949Z" opacity="1" fill="#000000"/>
<path d="M91.2951+88.65L91.2951+88.9933L85.905+88.9933L85.905+88.65L86.3503+88.65C86.8698+88.65+87.2471+88.4985+87.4821+88.1954C87.6305+87.9975+87.7048+87.5213+87.7048+86.7667L87.7048+78.6398C87.7048+78.0027+87.6646+77.5822+87.5842+77.3781C87.5223+77.2234+87.3955+77.0905+87.2038+76.9791C86.9316+76.8307+86.6471+76.7565+86.3503+76.7565L85.905+76.7565L85.905+76.4132L91.2951+76.4132L91.2951+76.7565L90.8405+76.7565C90.3272+76.7565+89.953+76.908+89.7179+77.2111C89.5633+77.409+89.486+77.8852+89.486+78.6398L89.486+86.7667C89.486+87.4038+89.5262+87.8244+89.6066+88.0285C89.6685+88.1831+89.7983+88.316+89.9963+88.4274C90.2622+88.5758+90.5436+88.65+90.8405+88.65L91.2951+88.65Z" opacity="1" fill="#000000"/>
<path d="M110.761+76.1256C112.394+76.1256+113.809+76.7457+115.005+77.9857C116.202+79.2258+116.801+80.7736+116.801+82.629C116.801+84.5402+116.197+86.1266+114.991+87.3883C113.785+88.65+112.326+89.2809+110.613+89.2809C108.881+89.2809+107.426+88.6655+106.248+87.4347C105.069+86.2039+104.48+84.6113+104.48+82.6569C104.48+80.6591+105.161+79.0294+106.521+77.7677C107.703+76.673+109.116+76.1256+110.761+76.1256ZM110.585+76.8029C109.459+76.8029+108.556+77.2203+107.876+78.0553C107.028+79.0944+106.605+80.6159+106.605+82.6198C106.605+84.6731+107.044+86.2534+107.922+87.3605C108.596+88.2016+109.487+88.6222+110.594+88.6222C111.775+88.6222+112.751+88.1614+113.521+87.2399C114.291+86.3183+114.676+84.8649+114.676+82.8795C114.676+80.7272+114.252+79.1222+113.405+78.0646C112.725+77.2234+111.785+76.8029+110.585+76.8029Z" opacity="1" fill="#000000"/>
</g>
</g>
</svg>
